# xmcd CD database file
#
# Track frame offsets:
#	150
#	11906
#	28051
#	38693
#	53710
#	69972
#	81517
#	91714
#	107468
#	121232
#	134505
#
# Disc length: 2002 seconds
#
# Revision: 0
# Processed by: cddbd v1.5.2PL0 Copyright (c) Steve Scherf et al.
# Submitted via: CDex 1.70beta2
#
DISCID=8707d00b
DTITLE=Max Rocci and His Friends - Il Mondo Dei Giovani Vol. 4
DYEAR=1900
DGENRE=Jazz
TTITLE0=Colorombo
TTITLE1=Red Blues
TTITLE2=Danger
TTITLE3=Greenleaf Street
TTITLE4=Night Travel
TTITLE5=Niagara Falls
TTITLE6=Rolling Crash
TTITLE7=Four Hands
TTITLE8=Outcast
TTITLE9=Swing Motion
TTITLE10=Junior Mood
EXTD=
EXTT0=
EXTT1=
EXTT2=
EXTT3=
EXTT4=
EXTT5=
EXTT6=
EXTT7=
EXTT8=
EXTT9=
EXTT10=
PLAYORDER=
